<svg id="Layer_1" data-name="Layer 1" xmlns="http://www.w3.org/2000/svg" xmlns:xlink="http://www.w3.org/1999/xlink" viewBox="0 0 1080 1080"><defs><style>.cls-1{fill:url(#linear-gradient);}.cls-2{fill:none;}.cls-2,.cls-3{stroke:#fff;stroke-miterlimit:10;}.cls-3{fill:url(#linear-gradient-2);}.cls-4{fill:url(#linear-gradient-3);}</style><linearGradient id="linear-gradient" x1="179.55" y1="853.98" x2="450.01" y2="385.54" gradientUnits="userSpaceOnUse"><stop offset="0" stop-color="#f7f7f7"/><stop offset="0" stop-color="#68cbe3"/><stop offset="0.15" stop-color="#69cbde"/><stop offset="0.33" stop-color="#6ac9d0"/><stop offset="0.52" stop-color="#6dc7b8"/><stop offset="0.53" stop-color="#6dc7b6"/><stop offset="0.65" stop-color="#6dc7b3"/><stop offset="0.74" stop-color="#6dc6aa"/><stop offset="0.81" stop-color="#6ec59b"/><stop offset="0.88" stop-color="#6ec485"/><stop offset="0.94" stop-color="#6fc269"/><stop offset="1" stop-color="#70bf47"/><stop offset="1" stop-color="#70bf44"/></linearGradient><linearGradient id="linear-gradient-2" x1="678.14" y1="743.37" x2="923.92" y2="317.68" xlink:href="#linear-gradient"/><linearGradient id="linear-gradient-3" x1="935.16" y1="768.02" x2="1007.04" y2="643.51" xlink:href="#linear-gradient"/></defs><polygon class="cls-1" points="19.71 761.7 112.28 761.7 260.4 460.85 401.57 761.7 491.82 761.7 255.77 273.39 19.71 761.7"/><path class="cls-2" d="M966.5,529.29A165.26,165.26,0,1,1,801.23,364.05,165.27,165.27,0,0,1,966.5,529.29Z"/><path class="cls-3" d="M812.1,699.16l6-5.45a167.69,167.69,0,0,1-16.86.85,165.25,165.25,0,1,1,162.1-133l5.11-4.65,65,59a245.11,245.11,0,0,0,14.91-84.48c0-135.72-110-245.73-245.76-245.73s-245.73,110-245.73,245.73,110,245.73,245.73,245.73a245.4,245.4,0,0,0,75.75-11.95Z"/><polygon class="cls-4" points="897.81 580.45 1070.61 785.65 965.7 785.65 891.64 705.42 897.81 580.45"/></svg>